<mxfile host="Electron" agent="Mozilla/5.0 (Windows NT 10.0; Win64; x64) AppleWebKit/537.36 (KHTML, like Gecko) draw.io/26.2.2 Chrome/134.0.6998.178 Electron/35.1.2 Safari/537.36" version="26.2.2">
  <diagram name="Seite-1" id="ans5fEeYBTAbapAWKp3n">
    <mxGraphModel dx="717" dy="1280" grid="1" gridSize="10" guides="1" tooltips="1" connect="1" arrows="1" fold="1" page="1" pageScale="1" pageWidth="827" pageHeight="1169" math="0" shadow="0">
      <root>
        <mxCell id="0" />
        <mxCell id="1" parent="0" />
        <mxCell id="fINNCobZ1flbeH4fllJU-5" style="edgeStyle=orthogonalEdgeStyle;rounded=0;orthogonalLoop=1;jettySize=auto;html=1;entryX=0.5;entryY=0;entryDx=0;entryDy=0;" edge="1" parent="1" source="fINNCobZ1flbeH4fllJU-1" target="fINNCobZ1flbeH4fllJU-2">
          <mxGeometry relative="1" as="geometry" />
        </mxCell>
        <mxCell id="fINNCobZ1flbeH4fllJU-1" value="zahleingebn" style="rounded=1;whiteSpace=wrap;html=1;" vertex="1" parent="1">
          <mxGeometry x="350" y="210" width="120" height="60" as="geometry" />
        </mxCell>
        <mxCell id="fINNCobZ1flbeH4fllJU-7" style="edgeStyle=orthogonalEdgeStyle;rounded=0;orthogonalLoop=1;jettySize=auto;html=1;entryX=0;entryY=0.5;entryDx=0;entryDy=0;" edge="1" parent="1" source="fINNCobZ1flbeH4fllJU-2" target="fINNCobZ1flbeH4fllJU-4">
          <mxGeometry relative="1" as="geometry" />
        </mxCell>
        <mxCell id="fINNCobZ1flbeH4fllJU-8" style="edgeStyle=orthogonalEdgeStyle;rounded=0;orthogonalLoop=1;jettySize=auto;html=1;entryX=1;entryY=0.5;entryDx=0;entryDy=0;" edge="1" parent="1" source="fINNCobZ1flbeH4fllJU-2" target="fINNCobZ1flbeH4fllJU-3">
          <mxGeometry relative="1" as="geometry" />
        </mxCell>
        <mxCell id="fINNCobZ1flbeH4fllJU-2" value="" style="rhombus;whiteSpace=wrap;html=1;" vertex="1" parent="1">
          <mxGeometry x="370" y="390" width="80" height="80" as="geometry" />
        </mxCell>
        <mxCell id="fINNCobZ1flbeH4fllJU-14" style="edgeStyle=orthogonalEdgeStyle;rounded=0;orthogonalLoop=1;jettySize=auto;html=1;entryX=0;entryY=0.5;entryDx=0;entryDy=0;" edge="1" parent="1" source="fINNCobZ1flbeH4fllJU-3" target="fINNCobZ1flbeH4fllJU-11">
          <mxGeometry relative="1" as="geometry">
            <Array as="points">
              <mxPoint x="180" y="610" />
            </Array>
          </mxGeometry>
        </mxCell>
        <mxCell id="fINNCobZ1flbeH4fllJU-3" value="Den Kehrwet berechnen" style="rounded=1;whiteSpace=wrap;html=1;" vertex="1" parent="1">
          <mxGeometry x="120" y="400" width="120" height="60" as="geometry" />
        </mxCell>
        <mxCell id="fINNCobZ1flbeH4fllJU-13" style="edgeStyle=orthogonalEdgeStyle;rounded=0;orthogonalLoop=1;jettySize=auto;html=1;entryX=1;entryY=0.5;entryDx=0;entryDy=0;" edge="1" parent="1" source="fINNCobZ1flbeH4fllJU-4" target="fINNCobZ1flbeH4fllJU-11">
          <mxGeometry relative="1" as="geometry">
            <Array as="points">
              <mxPoint x="640" y="610" />
            </Array>
          </mxGeometry>
        </mxCell>
        <mxCell id="fINNCobZ1flbeH4fllJU-4" value="Fehler meldung anzeigen" style="rounded=1;whiteSpace=wrap;html=1;" vertex="1" parent="1">
          <mxGeometry x="580" y="400" width="120" height="60" as="geometry" />
        </mxCell>
        <mxCell id="fINNCobZ1flbeH4fllJU-9" value="[zahl ungleich null]" style="text;html=1;align=center;verticalAlign=middle;resizable=0;points=[];autosize=1;strokeColor=none;fillColor=none;" vertex="1" parent="1">
          <mxGeometry x="250" y="400" width="120" height="30" as="geometry" />
        </mxCell>
        <mxCell id="fINNCobZ1flbeH4fllJU-10" value="[zahl null]" style="text;html=1;align=center;verticalAlign=middle;resizable=0;points=[];autosize=1;strokeColor=none;fillColor=none;" vertex="1" parent="1">
          <mxGeometry x="475" y="398" width="70" height="30" as="geometry" />
        </mxCell>
        <mxCell id="fINNCobZ1flbeH4fllJU-15" style="edgeStyle=orthogonalEdgeStyle;rounded=0;orthogonalLoop=1;jettySize=auto;html=1;entryX=0.5;entryY=0;entryDx=0;entryDy=0;" edge="1" parent="1" source="fINNCobZ1flbeH4fllJU-11" target="fINNCobZ1flbeH4fllJU-12">
          <mxGeometry relative="1" as="geometry" />
        </mxCell>
        <mxCell id="fINNCobZ1flbeH4fllJU-11" value="" style="rhombus;whiteSpace=wrap;html=1;" vertex="1" parent="1">
          <mxGeometry x="370" y="570" width="80" height="80" as="geometry" />
        </mxCell>
        <mxCell id="fINNCobZ1flbeH4fllJU-12" value="....." style="rounded=1;whiteSpace=wrap;html=1;" vertex="1" parent="1">
          <mxGeometry x="350" y="750" width="120" height="60" as="geometry" />
        </mxCell>
        <mxCell id="fINNCobZ1flbeH4fllJU-16" value="" style="rounded=1;whiteSpace=wrap;html=1;connectable=0;" vertex="1" parent="1">
          <mxGeometry x="36" y="900" width="439" height="480" as="geometry" />
        </mxCell>
        <mxCell id="fINNCobZ1flbeH4fllJU-17" value="Summe zwei zahlen berechnen" style="text;html=1;align=center;verticalAlign=middle;resizable=0;points=[];autosize=1;strokeColor=none;fillColor=none;" vertex="1" parent="1">
          <mxGeometry x="60" y="910" width="190" height="30" as="geometry" />
        </mxCell>
        <mxCell id="fINNCobZ1flbeH4fllJU-21" style="edgeStyle=orthogonalEdgeStyle;rounded=0;orthogonalLoop=1;jettySize=auto;html=1;" edge="1" parent="1" source="fINNCobZ1flbeH4fllJU-18" target="fINNCobZ1flbeH4fllJU-19">
          <mxGeometry relative="1" as="geometry" />
        </mxCell>
        <mxCell id="fINNCobZ1flbeH4fllJU-18" value="Zahl A einlesen" style="rounded=1;whiteSpace=wrap;html=1;" vertex="1" parent="1">
          <mxGeometry x="195.5" y="1020" width="120" height="60" as="geometry" />
        </mxCell>
        <mxCell id="fINNCobZ1flbeH4fllJU-22" style="edgeStyle=orthogonalEdgeStyle;rounded=0;orthogonalLoop=1;jettySize=auto;html=1;" edge="1" parent="1" source="fINNCobZ1flbeH4fllJU-19" target="fINNCobZ1flbeH4fllJU-20">
          <mxGeometry relative="1" as="geometry" />
        </mxCell>
        <mxCell id="fINNCobZ1flbeH4fllJU-19" value="Zahl B einlesen" style="rounded=1;whiteSpace=wrap;html=1;" vertex="1" parent="1">
          <mxGeometry x="195.5" y="1110" width="120" height="60" as="geometry" />
        </mxCell>
        <mxCell id="fINNCobZ1flbeH4fllJU-70" style="edgeStyle=orthogonalEdgeStyle;rounded=0;orthogonalLoop=1;jettySize=auto;html=1;entryX=0.5;entryY=0;entryDx=0;entryDy=0;" edge="1" parent="1" source="fINNCobZ1flbeH4fllJU-20" target="fINNCobZ1flbeH4fllJU-69">
          <mxGeometry relative="1" as="geometry" />
        </mxCell>
        <mxCell id="fINNCobZ1flbeH4fllJU-20" value="Summe berechnen" style="rounded=1;whiteSpace=wrap;html=1;" vertex="1" parent="1">
          <mxGeometry x="195.5" y="1200" width="120" height="60" as="geometry" />
        </mxCell>
        <mxCell id="fINNCobZ1flbeH4fllJU-24" style="edgeStyle=orthogonalEdgeStyle;rounded=0;orthogonalLoop=1;jettySize=auto;html=1;entryX=0.5;entryY=0;entryDx=0;entryDy=0;" edge="1" parent="1" source="fINNCobZ1flbeH4fllJU-25" target="fINNCobZ1flbeH4fllJU-28">
          <mxGeometry relative="1" as="geometry" />
        </mxCell>
        <mxCell id="fINNCobZ1flbeH4fllJU-25" value="Tastendruck" style="rounded=1;whiteSpace=wrap;html=1;" vertex="1" parent="1">
          <mxGeometry x="770" y="890" width="120" height="60" as="geometry" />
        </mxCell>
        <mxCell id="fINNCobZ1flbeH4fllJU-26" style="edgeStyle=orthogonalEdgeStyle;rounded=0;orthogonalLoop=1;jettySize=auto;html=1;entryX=0;entryY=0.5;entryDx=0;entryDy=0;" edge="1" parent="1" source="fINNCobZ1flbeH4fllJU-28" target="fINNCobZ1flbeH4fllJU-32">
          <mxGeometry relative="1" as="geometry" />
        </mxCell>
        <mxCell id="fINNCobZ1flbeH4fllJU-27" style="edgeStyle=orthogonalEdgeStyle;rounded=0;orthogonalLoop=1;jettySize=auto;html=1;entryX=1;entryY=0.5;entryDx=0;entryDy=0;" edge="1" parent="1" source="fINNCobZ1flbeH4fllJU-28" target="fINNCobZ1flbeH4fllJU-30">
          <mxGeometry relative="1" as="geometry" />
        </mxCell>
        <mxCell id="fINNCobZ1flbeH4fllJU-28" value="" style="rhombus;whiteSpace=wrap;html=1;" vertex="1" parent="1">
          <mxGeometry x="790" y="1070" width="80" height="80" as="geometry" />
        </mxCell>
        <mxCell id="fINNCobZ1flbeH4fllJU-29" style="edgeStyle=orthogonalEdgeStyle;rounded=0;orthogonalLoop=1;jettySize=auto;html=1;entryX=0;entryY=0.5;entryDx=0;entryDy=0;" edge="1" parent="1" source="fINNCobZ1flbeH4fllJU-30" target="fINNCobZ1flbeH4fllJU-36">
          <mxGeometry relative="1" as="geometry">
            <Array as="points">
              <mxPoint x="600" y="1290" />
            </Array>
          </mxGeometry>
        </mxCell>
        <mxCell id="fINNCobZ1flbeH4fllJU-30" value="Summe zweier Zahlen" style="rounded=1;whiteSpace=wrap;html=1;" vertex="1" parent="1">
          <mxGeometry x="540" y="1080" width="120" height="60" as="geometry" />
        </mxCell>
        <mxCell id="fINNCobZ1flbeH4fllJU-31" style="edgeStyle=orthogonalEdgeStyle;rounded=0;orthogonalLoop=1;jettySize=auto;html=1;entryX=1;entryY=0.5;entryDx=0;entryDy=0;" edge="1" parent="1" source="fINNCobZ1flbeH4fllJU-32" target="fINNCobZ1flbeH4fllJU-36">
          <mxGeometry relative="1" as="geometry">
            <Array as="points">
              <mxPoint x="1060" y="1290" />
            </Array>
          </mxGeometry>
        </mxCell>
        <mxCell id="fINNCobZ1flbeH4fllJU-32" value="Abbruch text =&lt;div&gt;&quot;Abbruch&quot;&lt;/div&gt;" style="rounded=1;whiteSpace=wrap;html=1;" vertex="1" parent="1">
          <mxGeometry x="1000" y="1080" width="120" height="60" as="geometry" />
        </mxCell>
        <mxCell id="fINNCobZ1flbeH4fllJU-33" value="[Taste = S]" style="text;html=1;align=center;verticalAlign=middle;resizable=0;points=[];autosize=1;strokeColor=none;fillColor=none;" vertex="1" parent="1">
          <mxGeometry x="690" y="1080" width="80" height="30" as="geometry" />
        </mxCell>
        <mxCell id="fINNCobZ1flbeH4fllJU-34" value="[Taste = A]" style="text;html=1;align=center;verticalAlign=middle;resizable=0;points=[];autosize=1;strokeColor=none;fillColor=none;" vertex="1" parent="1">
          <mxGeometry x="890" y="1078" width="80" height="30" as="geometry" />
        </mxCell>
        <mxCell id="fINNCobZ1flbeH4fllJU-67" style="edgeStyle=orthogonalEdgeStyle;rounded=0;orthogonalLoop=1;jettySize=auto;html=1;entryX=0.5;entryY=0;entryDx=0;entryDy=0;" edge="1" parent="1" source="fINNCobZ1flbeH4fllJU-36" target="fINNCobZ1flbeH4fllJU-65">
          <mxGeometry relative="1" as="geometry" />
        </mxCell>
        <mxCell id="fINNCobZ1flbeH4fllJU-36" value="" style="rhombus;whiteSpace=wrap;html=1;" vertex="1" parent="1">
          <mxGeometry x="790" y="1250" width="80" height="80" as="geometry" />
        </mxCell>
        <mxCell id="fINNCobZ1flbeH4fllJU-43" value="" style="group" vertex="1" connectable="0" parent="1">
          <mxGeometry x="660" y="1010" width="20" height="40" as="geometry" />
        </mxCell>
        <mxCell id="fINNCobZ1flbeH4fllJU-44" value="" style="endArrow=none;html=1;rounded=0;" edge="1" parent="fINNCobZ1flbeH4fllJU-43">
          <mxGeometry width="50" height="50" relative="1" as="geometry">
            <mxPoint x="10" y="40" as="sourcePoint" />
            <mxPoint x="10" as="targetPoint" />
          </mxGeometry>
        </mxCell>
        <mxCell id="fINNCobZ1flbeH4fllJU-45" value="" style="endArrow=none;html=1;rounded=0;" edge="1" parent="fINNCobZ1flbeH4fllJU-43">
          <mxGeometry width="50" height="50" relative="1" as="geometry">
            <mxPoint x="10" y="20" as="sourcePoint" />
            <mxPoint x="20" as="targetPoint" />
            <Array as="points">
              <mxPoint x="20" y="20" />
            </Array>
          </mxGeometry>
        </mxCell>
        <mxCell id="fINNCobZ1flbeH4fllJU-46" value="" style="endArrow=none;html=1;rounded=0;" edge="1" parent="fINNCobZ1flbeH4fllJU-43">
          <mxGeometry width="50" height="50" relative="1" as="geometry">
            <mxPoint x="10" y="20" as="sourcePoint" />
            <mxPoint as="targetPoint" />
            <Array as="points">
              <mxPoint y="20" />
            </Array>
          </mxGeometry>
        </mxCell>
        <mxCell id="fINNCobZ1flbeH4fllJU-47" value="" style="group" vertex="1" connectable="0" parent="1">
          <mxGeometry x="720" y="1020" width="10" height="20" as="geometry" />
        </mxCell>
        <mxCell id="fINNCobZ1flbeH4fllJU-48" value="" style="endArrow=none;html=1;rounded=0;" edge="1" parent="fINNCobZ1flbeH4fllJU-47">
          <mxGeometry width="50" height="50" relative="1" as="geometry">
            <mxPoint x="5" y="15" as="sourcePoint" />
            <mxPoint x="5" y="5" as="targetPoint" />
          </mxGeometry>
        </mxCell>
        <mxCell id="fINNCobZ1flbeH4fllJU-49" value="" style="endArrow=none;html=1;rounded=0;" edge="1" parent="fINNCobZ1flbeH4fllJU-47">
          <mxGeometry width="50" height="50" relative="1" as="geometry">
            <mxPoint x="5" y="10" as="sourcePoint" />
            <mxPoint x="10" y="5" as="targetPoint" />
            <Array as="points">
              <mxPoint x="10" y="10" />
            </Array>
          </mxGeometry>
        </mxCell>
        <mxCell id="fINNCobZ1flbeH4fllJU-50" value="" style="endArrow=none;html=1;rounded=0;" edge="1" parent="fINNCobZ1flbeH4fllJU-47">
          <mxGeometry width="50" height="50" relative="1" as="geometry">
            <mxPoint x="5" y="10" as="sourcePoint" />
            <mxPoint y="5" as="targetPoint" />
            <Array as="points">
              <mxPoint y="10" />
            </Array>
          </mxGeometry>
        </mxCell>
        <mxCell id="fINNCobZ1flbeH4fllJU-51" value="" style="group" vertex="1" connectable="0" parent="1">
          <mxGeometry x="690" y="1010" width="20" height="40" as="geometry" />
        </mxCell>
        <mxCell id="fINNCobZ1flbeH4fllJU-52" value="" style="endArrow=none;html=1;rounded=0;" edge="1" parent="fINNCobZ1flbeH4fllJU-51">
          <mxGeometry width="50" height="50" relative="1" as="geometry">
            <mxPoint x="10" y="30" as="sourcePoint" />
            <mxPoint x="10" y="10" as="targetPoint" />
          </mxGeometry>
        </mxCell>
        <mxCell id="fINNCobZ1flbeH4fllJU-53" value="" style="endArrow=none;html=1;rounded=0;" edge="1" parent="fINNCobZ1flbeH4fllJU-51">
          <mxGeometry width="50" height="50" relative="1" as="geometry">
            <mxPoint x="10" y="20" as="sourcePoint" />
            <mxPoint x="20" y="10" as="targetPoint" />
            <Array as="points">
              <mxPoint x="20" y="20" />
            </Array>
          </mxGeometry>
        </mxCell>
        <mxCell id="fINNCobZ1flbeH4fllJU-54" value="" style="endArrow=none;html=1;rounded=0;" edge="1" parent="fINNCobZ1flbeH4fllJU-51">
          <mxGeometry width="50" height="50" relative="1" as="geometry">
            <mxPoint x="10" y="20" as="sourcePoint" />
            <mxPoint y="10" as="targetPoint" />
            <Array as="points">
              <mxPoint y="20" />
            </Array>
          </mxGeometry>
        </mxCell>
        <mxCell id="fINNCobZ1flbeH4fllJU-58" value="" style="group" vertex="1" connectable="0" parent="1">
          <mxGeometry x="740" y="1025" width="10" height="10" as="geometry" />
        </mxCell>
        <mxCell id="fINNCobZ1flbeH4fllJU-55" value="" style="endArrow=none;html=1;rounded=0;" edge="1" parent="fINNCobZ1flbeH4fllJU-58">
          <mxGeometry width="50" height="50" relative="1" as="geometry">
            <mxPoint x="5" y="5" as="sourcePoint" />
            <mxPoint x="10" as="targetPoint" />
          </mxGeometry>
        </mxCell>
        <mxCell id="fINNCobZ1flbeH4fllJU-56" value="" style="endArrow=none;html=1;rounded=0;" edge="1" parent="fINNCobZ1flbeH4fllJU-58">
          <mxGeometry width="50" height="50" relative="1" as="geometry">
            <mxPoint x="5" y="10" as="sourcePoint" />
            <mxPoint x="5" as="targetPoint" />
          </mxGeometry>
        </mxCell>
        <mxCell id="fINNCobZ1flbeH4fllJU-57" value="" style="endArrow=none;html=1;rounded=0;" edge="1" parent="fINNCobZ1flbeH4fllJU-58">
          <mxGeometry width="50" height="50" relative="1" as="geometry">
            <mxPoint x="5" y="5" as="sourcePoint" />
            <mxPoint as="targetPoint" />
          </mxGeometry>
        </mxCell>
        <mxCell id="fINNCobZ1flbeH4fllJU-59" value="" style="group" vertex="1" connectable="0" parent="1">
          <mxGeometry x="630" y="1120" width="10" height="20" as="geometry" />
        </mxCell>
        <mxCell id="fINNCobZ1flbeH4fllJU-60" value="" style="endArrow=none;html=1;rounded=0;" edge="1" parent="fINNCobZ1flbeH4fllJU-59">
          <mxGeometry width="50" height="50" relative="1" as="geometry">
            <mxPoint x="5" y="15" as="sourcePoint" />
            <mxPoint x="5" y="5" as="targetPoint" />
          </mxGeometry>
        </mxCell>
        <mxCell id="fINNCobZ1flbeH4fllJU-61" value="" style="endArrow=none;html=1;rounded=0;" edge="1" parent="fINNCobZ1flbeH4fllJU-59">
          <mxGeometry width="50" height="50" relative="1" as="geometry">
            <mxPoint x="5" y="10" as="sourcePoint" />
            <mxPoint x="10" y="5" as="targetPoint" />
            <Array as="points">
              <mxPoint x="10" y="10" />
            </Array>
          </mxGeometry>
        </mxCell>
        <mxCell id="fINNCobZ1flbeH4fllJU-62" value="" style="endArrow=none;html=1;rounded=0;" edge="1" parent="fINNCobZ1flbeH4fllJU-59">
          <mxGeometry width="50" height="50" relative="1" as="geometry">
            <mxPoint x="5" y="10" as="sourcePoint" />
            <mxPoint y="5" as="targetPoint" />
            <Array as="points">
              <mxPoint y="10" />
            </Array>
          </mxGeometry>
        </mxCell>
        <mxCell id="fINNCobZ1flbeH4fllJU-66" style="edgeStyle=orthogonalEdgeStyle;rounded=0;orthogonalLoop=1;jettySize=auto;html=1;entryX=0.5;entryY=0;entryDx=0;entryDy=0;" edge="1" parent="1" source="fINNCobZ1flbeH4fllJU-64" target="fINNCobZ1flbeH4fllJU-25">
          <mxGeometry relative="1" as="geometry" />
        </mxCell>
        <mxCell id="fINNCobZ1flbeH4fllJU-64" value="" style="ellipse;fillColor=strokeColor;html=1;" vertex="1" parent="1">
          <mxGeometry x="815" y="830" width="30" height="30" as="geometry" />
        </mxCell>
        <mxCell id="fINNCobZ1flbeH4fllJU-65" value="" style="ellipse;html=1;shape=endState;fillColor=strokeColor;" vertex="1" parent="1">
          <mxGeometry x="815" y="1380" width="30" height="30" as="geometry" />
        </mxCell>
        <mxCell id="fINNCobZ1flbeH4fllJU-71" style="edgeStyle=orthogonalEdgeStyle;rounded=0;orthogonalLoop=1;jettySize=auto;html=1;entryX=0.5;entryY=0;entryDx=0;entryDy=0;" edge="1" parent="1" source="fINNCobZ1flbeH4fllJU-68" target="fINNCobZ1flbeH4fllJU-18">
          <mxGeometry relative="1" as="geometry" />
        </mxCell>
        <mxCell id="fINNCobZ1flbeH4fllJU-68" value="" style="ellipse;fillColor=strokeColor;html=1;" vertex="1" parent="1">
          <mxGeometry x="240.5" y="960" width="30" height="30" as="geometry" />
        </mxCell>
        <mxCell id="fINNCobZ1flbeH4fllJU-69" value="" style="shape=sumEllipse;perimeter=ellipsePerimeter;html=1;backgroundOutline=1;" vertex="1" parent="1">
          <mxGeometry x="240.5" y="1290" width="30" height="30" as="geometry" />
        </mxCell>
      </root>
    </mxGraphModel>
  </diagram>
</mxfile>
